<svg viewBox="0 0 1920 592" fill="none" xmlns="http://www.w3.org/2000/svg">
<path d="M-13.4131 121.2C11.6919 102.371 37.7797 109.927 65.5 95.0011C89.9623 81.8291 119 59 146.5 39.5C176 18.5818 200.5 14.5119 235.5 8.00023C280.968 -0.459022 336.924 10.5011 383 10.5011C402.289 10.5011 412.5 10.8372 442.305 17.8154C473 25.0016 477.966 29.3722 495.988 37.1354C578.882 72.8435 656.772 130.847 717.801 197.3C788.531 274.318 873.834 351.355 978.253 376.048C1070.8 397.933 1162.66 410.294 1257.29 419.113C1318.01 424.772 1377.74 426.487 1438.69 426.487C1492.09 426.487 1540.51 427.322 1592.07 411.739C1666.96 389.106 1730.21 338.985 1800 304.502C1825.21 292.047 1838 281.502 1867.5 268.502C1897 255.502 1950.46 227.387 1956.35 227.387" stroke="white" stroke-width="9" stroke-linecap="round"/>
<path d="M-31 177.405C-5.89501 158.576 20.1928 166.132 47.9131 151.206C72.3753 138.034 101.413 115.205 128.913 95.7051C158.413 74.7869 182.913 70.7169 217.913 64.2053C263.382 55.7461 319.337 66.7062 365.413 66.7062C384.702 66.7062 394.913 67.0423 424.718 74.0204C455.413 81.2067 460.379 85.5773 478.401 93.3405C561.295 129.049 639.185 187.052 700.214 253.506C770.944 330.523 856.247 407.56 960.666 432.253C1053.21 454.138 1145.07 466.499 1239.7 475.318C1300.43 480.977 1360.15 482.692 1421.1 482.692C1474.5 482.692 1522.92 483.527 1574.48 467.944C1649.37 445.311 1712.63 395.19 1782.41 360.707C1807.62 348.252 1820.41 337.707 1849.91 324.707C1879.41 311.707 1932.87 283.592 1938.76 283.592" stroke="white" stroke-width="9" stroke-linecap="round"/>
<path d="M-33.4131 225.405C-8.3081 206.576 17.7797 214.132 45.5 199.206C69.9623 186.034 99 163.205 126.5 143.705C156 122.787 180.5 118.717 215.5 112.205C260.968 103.746 316.924 114.706 363 114.706C382.289 114.706 392.5 115.042 422.305 122.02C453 129.207 457.966 133.577 475.988 141.341C558.882 177.049 636.772 235.052 697.801 301.506C768.531 378.523 853.834 455.56 958.253 480.253C1050.8 502.138 1142.66 514.499 1237.29 523.318C1298.01 528.977 1357.74 530.692 1418.69 530.692C1472.09 530.692 1520.51 531.527 1572.07 515.944C1646.96 493.311 1710.21 443.19 1780 408.707C1805.21 396.252 1818 385.707 1847.5 372.707C1877 359.707 1930.46 331.592 1936.35 331.592" stroke="white" stroke-width="9" stroke-linecap="round"/>
<path d="M-51 281.61C-25.895 262.781 0.192778 270.338 27.9131 255.411C52.3753 242.239 81.4131 219.41 108.913 199.91C138.413 178.992 162.913 174.922 197.913 168.41C243.382 159.951 299.337 170.911 345.413 170.911C364.702 170.911 374.913 171.247 404.718 178.226C435.413 185.412 440.379 189.782 458.401 197.546C541.295 233.254 619.185 291.257 680.214 357.711C750.944 434.728 836.247 511.765 940.666 536.458C1033.21 558.343 1125.07 570.704 1219.7 579.523C1280.43 585.182 1340.15 586.897 1401.1 586.897C1454.5 586.897 1502.92 587.732 1554.48 572.149C1629.37 549.516 1692.63 499.395 1762.41 464.912C1787.62 452.457 1800.41 441.912 1829.91 428.912C1859.41 415.912 1912.87 387.797 1918.76 387.797" stroke="white" stroke-width="9" stroke-linecap="round"/>
</svg>
