<svg viewBox="0 0 1920 381" fill="none" xmlns="http://www.w3.org/2000/svg">
<path d="M-51 52C-48.7958 61.919 -26.7939 80.2061 -19 88C-8.39251 98.6075 3.81572 107.488 16.1111 116C47.9078 138.013 76.3253 164.751 109.889 184.889C149.336 208.557 191.5 231 238.778 252C332 286.5 408 317 523 340.5C749 368.5 1112.5 218.5 1201.89 160.889C1229.6 143.026 1242.5 134.812 1259 130C1283 123 1304.99 120.97 1324 118C1350.46 113.866 1362.5 111 1409.5 118C1456.5 125 1471.64 124.634 1511.22 131.111C1556.33 138.492 1583.22 143.5 1644.11 188C1705 232.5 1714.5 272.679 1826.78 292.889C1908 307.509 1865 296 1952.11 300" stroke="white" stroke-width="9" stroke-linecap="round"/>
<path d="M-51 5C-48.7958 14.919 -26.7939 33.2061 -19 41C-8.39251 51.6075 3.81572 60.4878 16.1111 69C47.9078 91.0131 76.3253 117.751 109.889 137.889C149.336 161.557 191.5 184 238.778 205C332 239.5 408 270 523 293.5C749 321.5 1112.5 171.5 1201.89 113.889C1229.6 96.0259 1242.5 87.8125 1259 83C1283 76 1304.99 73.9699 1324 71C1350.46 66.8663 1362.5 64 1409.5 71C1456.5 78 1471.64 77.6336 1511.22 84.1111C1556.33 91.4916 1583.22 96.5 1644.11 141C1705 185.5 1714.5 225.679 1826.78 245.889C1908 260.509 1865 249 1952.11 253" stroke="white" stroke-width="9" stroke-linecap="round"/>
<path d="M-51 136C-48.7958 145.919 -26.7939 164.206 -19 172C-8.39251 182.607 3.81572 191.488 16.1111 200C47.9078 222.013 76.3253 248.751 109.889 268.889C149.336 292.557 191.5 315 238.778 336C332 370.5 408 401 523 424.5C749 452.5 1112.5 302.5 1201.89 244.889C1229.6 227.026 1242.5 218.812 1259 214C1283 207 1304.99 204.97 1324 202C1350.46 197.866 1362.5 195 1409.5 202C1456.5 209 1471.64 208.634 1511.22 215.111C1556.33 222.492 1583.22 227.5 1644.11 272C1705 316.5 1714.5 356.679 1826.78 376.889C1908 391.509 1865 380 1952.11 384" stroke="white" stroke-width="9" stroke-linecap="round"/>
<path d="M-51 89C-48.7958 98.919 -26.7939 117.206 -19 125C-8.39251 135.607 3.81572 144.488 16.1111 153C47.9078 175.013 76.3253 201.751 109.889 221.889C149.336 245.557 191.5 268 238.778 289C332 323.5 408 354 523 377.5C749 405.5 1112.5 255.5 1201.89 197.889C1229.6 180.026 1242.5 171.812 1259 167C1283 160 1304.99 157.97 1324 155C1350.46 150.866 1362.5 148 1409.5 155C1456.5 162 1471.64 161.634 1511.22 168.111C1556.33 175.492 1583.22 180.5 1644.11 225C1705 269.5 1714.5 309.679 1826.78 329.889C1908 344.509 1865 333 1952.11 337" stroke="white" stroke-width="9" stroke-linecap="round"/>
</svg>
