<svg viewBox="0 0 626 456" fill="none" xmlns="http://www.w3.org/2000/svg">
<path d="M-83.001 337.141C-61.1181 337.141 -38.6032 338.74 -16.7961 336.96C14.4266 334.411 45.5141 313.501 52.4614 282.86C54.0163 276.002 54.7242 268.939 56.503 262.136C61.1557 244.341 64.2986 233.166 65.6637 228.405C66.1748 226.622 66.6449 224.833 67.0928 223.034C72.8926 199.737 79.6099 188.914 101.576 159.447C121.266 133.033 136.904 112.203 189.97 99.1291C205.383 95.3317 234.848 95.691 241.751 95.8335C242.739 95.8539 243.708 95.8666 244.697 95.8755C262.466 96.0356 292.929 98.9646 300.817 99.7512C302.1 99.8791 303.364 100.036 304.64 100.217C319.305 102.297 335.683 104.357 350.274 101.665C373.104 97.4537 392.224 82.0198 409.687 67.8832C441.415 42.1988 467.356 11.7533 496.088 -16.9786C508.039 -28.9294 513.511 -46.1592 525.07 -59.002" stroke="white" stroke-width="9" stroke-linecap="round"/>
<path d="M-98.001 310.143C-76.1181 310.143 -53.6032 311.742 -31.7961 309.962C-0.573393 307.413 30.5141 286.503 37.4614 255.862C39.0163 249.004 39.7242 241.941 41.503 235.138C46.1557 217.343 49.2986 206.168 50.6637 201.407C51.1748 199.624 51.6449 197.835 52.0928 196.036C57.8926 172.739 64.6099 161.915 86.5758 132.449C106.266 106.035 121.904 85.2053 174.97 72.131C190.383 68.3336 219.848 68.693 226.751 68.8355C227.739 68.8559 228.708 68.8685 229.697 68.8774C247.466 69.0376 277.929 71.9666 285.817 72.7531C287.1 72.881 288.364 73.0377 289.64 73.2187C304.305 75.2986 320.683 77.3585 335.274 74.6669C358.104 70.4557 377.224 55.0217 394.687 40.8852C426.415 15.2007 452.356 -15.2447 481.088 -43.9766C493.039 -55.9275 498.511 -73.1572 510.07 -86" stroke="white" stroke-width="9" stroke-linecap="round"/>
<path d="M-116 286.143C-94.1171 286.143 -71.6022 287.742 -49.7951 285.962C-18.5724 283.413 12.5151 262.503 19.4624 231.862C21.0173 225.004 21.7252 217.941 23.504 211.138C28.1567 193.343 31.2995 182.168 32.6647 177.407C33.1758 175.624 33.6458 173.835 34.0938 172.036C39.8935 148.739 46.6109 137.915 68.5767 108.449C88.2673 82.0349 103.904 61.2053 156.971 48.131C172.384 44.3336 201.849 44.693 208.752 44.8355C209.74 44.8559 210.709 44.8685 211.698 44.8774C229.467 45.0376 259.93 47.9666 267.818 48.7531C269.101 48.881 270.365 49.0377 271.641 49.2187C286.306 51.2986 302.684 53.3585 317.275 50.6669C340.105 46.4557 359.225 31.0217 376.688 16.8852C408.416 -8.79927 434.357 -39.2447 463.089 -67.9766C475.04 -79.9275 480.512 -97.1572 492.071 -110" stroke="white" stroke-width="9" stroke-linecap="round"/>
<path d="M-131 262.143C-109.117 262.143 -86.6022 263.742 -64.7951 261.962C-33.5724 259.413 -2.48493 238.503 4.46236 207.862C6.01731 201.004 6.72516 193.941 8.50399 187.138C13.1567 169.343 16.2995 158.168 17.6647 153.407C18.1758 151.624 18.6458 149.835 19.0938 148.036C24.8935 124.739 31.6109 113.915 53.5767 84.449C73.2673 58.0349 88.9045 37.2053 141.971 24.131C157.384 20.3336 186.849 20.693 193.752 20.8355C194.74 20.8559 195.709 20.8685 196.698 20.8774C214.467 21.0376 244.93 23.9666 252.818 24.7531C254.101 24.881 255.365 25.0377 256.641 25.2187C271.306 27.2986 287.684 29.3585 302.275 26.6669C325.105 22.4557 344.225 7.02174 361.688 -7.1148C393.416 -32.7993 419.357 -63.2447 448.089 -91.9766C460.04 -103.927 465.512 -121.157 477.071 -134" stroke="white" stroke-width="9" stroke-linecap="round"/>
</svg>
