<svg viewBox="0 0 176 126" fill="none" xmlns="http://www.w3.org/2000/svg">
<path d="M-29 124.05C-21.7056 124.05 -14.2005 124.583 -6.93132 123.989C1.10035 123.334 9.10518 119.033 13.4058 112.41C17.2354 106.512 17.4678 99.0189 19.32 92.2351C19.6023 91.201 19.8465 90.3191 20.051 89.5882C20.5504 87.8026 21.0041 86.0052 21.5056 84.2201C23.3572 77.6291 25.7918 73.8522 32.5266 64.8176C39.0903 56.0127 44.3027 49.0694 61.9918 44.7112C66.5764 43.5817 74.8909 43.5555 78.263 43.5967C79.2514 43.6087 80.2353 43.62 81.2235 43.643C86.45 43.7648 94.1202 44.4534 97.6592 44.7932C98.9428 44.9165 100.216 45.0775 101.494 45.2521C106.042 45.8738 110.984 46.3763 115.428 45.5565C123.037 44.1528 129.411 39.008 135.232 34.2958C145.808 25.7341 154.456 15.5855 164.033 6.00802C168.017 2.02434 169.841 -3.719 173.694 -8" stroke="white" stroke-width="3" stroke-linecap="round"/>
<path d="M-34 115.05C-26.7056 115.05 -19.2005 115.583 -11.9313 114.989C-3.89965 114.334 4.10518 110.033 8.40581 103.41C12.2354 97.512 12.4678 90.0189 14.32 83.2351C14.6023 82.201 14.8465 81.3191 15.051 80.5882C15.5504 78.8026 16.0041 77.0052 16.5056 75.2201C18.3572 68.6291 20.7918 64.8522 27.5266 55.8176C34.0903 47.0127 39.3027 40.0694 56.9918 35.7112C61.5764 34.5817 69.8909 34.5555 73.263 34.5967C74.2514 34.6087 75.2353 34.62 76.2235 34.643C81.45 34.7648 89.1202 35.4534 92.6592 35.7932C93.9428 35.9165 95.2159 36.0775 96.4935 36.2521C101.042 36.8738 105.984 37.3763 110.428 36.5565C118.037 35.1528 124.411 30.008 130.232 25.2958C140.808 16.7341 149.456 6.58548 159.033 -2.99198C163.017 -6.97566 164.841 -12.719 168.694 -17" stroke="white" stroke-width="3" stroke-linecap="round"/>
<path d="M-40 107.05C-32.7056 107.05 -25.2005 107.583 -17.9313 106.989C-9.89965 106.334 -1.89482 102.033 2.40581 95.4099C6.23539 89.512 6.46783 82.0189 8.31995 75.2351C8.6023 74.201 8.84652 73.3191 9.05096 72.5882C9.55045 70.8026 10.0041 69.0052 10.5056 67.2201C12.3572 60.6291 14.7918 56.8522 21.5266 47.8176C28.0903 39.0127 33.3027 32.0694 50.9918 27.7112C55.5764 26.5817 63.8909 26.5555 67.263 26.5967C68.2514 26.6087 69.2353 26.62 70.2235 26.643C75.45 26.7648 83.1202 27.4534 86.6592 27.7932C87.9428 27.9165 89.2159 28.0775 90.4935 28.2521C95.0422 28.8738 99.9835 29.3763 104.428 28.5565C112.037 27.1528 118.411 22.008 124.232 17.2958C134.808 8.73415 143.456 -1.41452 153.033 -10.992C157.017 -14.9757 158.841 -20.719 162.694 -25" stroke="white" stroke-width="3" stroke-linecap="round"/>
<path d="M-45 99.0498C-37.7056 99.0498 -30.2005 99.5828 -22.9313 98.9894C-14.8997 98.3337 -6.89482 94.0332 -2.59419 87.4099C1.23539 81.512 1.46783 74.0189 3.31995 67.2351C3.6023 66.201 3.84652 65.3191 4.05096 64.5882C4.55045 62.8026 5.0041 61.0052 5.5056 59.2201C7.35723 52.6291 9.79175 48.8522 16.5266 39.8176C23.0903 31.0127 28.3027 24.0694 45.9918 19.7112C50.5764 18.5817 58.8909 18.5555 62.263 18.5967C63.2514 18.6087 64.2353 18.62 65.2235 18.643C70.45 18.7648 78.1202 19.4534 81.6592 19.7932C82.9428 19.9165 84.2159 20.0775 85.4935 20.2521C90.0422 20.8738 94.9835 21.3763 99.4276 20.5565C107.037 19.1528 113.411 14.008 119.232 9.29578C129.808 0.734146 138.456 -9.41452 148.033 -18.992C152.017 -22.9757 153.841 -28.719 157.694 -33" stroke="white" stroke-width="3" stroke-linecap="round"/>
</svg>
