<svg viewBox="0 0 986 368" fill="none" xmlns="http://www.w3.org/2000/svg">
<path d="M5 0C37.8366 0 71.9192 7.16878 96.3527 30.7315C106.617 40.6297 110.427 52.3638 115.001 65.1053C123.622 89.1228 133.034 120.538 150.409 140.341C163.179 154.895 178.658 172.823 198.328 178.243C210.291 181.539 222.287 184.389 234.798 184.389C256.936 184.389 279.116 188.322 301.247 185.983C337.028 182.201 372.115 183.083 407.471 176.649C444.972 169.826 483.675 159.272 518.18 143.3C525.388 139.963 539.807 136.126 552.772 133.665C566.195 131.117 579.692 134.34 593.174 136.555C594.183 136.721 595.28 136.941 596.55 137.267C612.042 141.251 631.271 153.209 643.525 162.877C660.895 176.582 675.376 189.335 690.735 205.332C705.163 220.359 716.08 241.563 728.976 258.145C749.64 284.715 769.919 311.287 794.363 334.86C812.836 352.675 837.626 358.451 863.054 360.583C892.517 363.054 921.869 362.632 951.456 362.632C966.957 362.632 982.458 362.632 997.959 362.632C1008.19 362.632 1019.4 364.285 1029 360.583" stroke="white" stroke-width="9" stroke-linecap="round"/>
<path d="M26 -43C58.8366 -43 92.9192 -35.8312 117.353 -12.2685C127.617 -2.37028 131.427 9.36383 136.001 22.1053C144.622 46.1228 154.034 77.5382 171.409 97.3406C184.179 111.895 199.658 129.823 219.328 135.243C231.291 138.539 243.287 141.389 255.798 141.389C277.936 141.389 300.116 145.322 322.247 142.983C358.028 139.201 393.115 140.083 428.471 133.649C465.972 126.826 504.675 116.272 539.18 100.3C546.388 96.9633 560.807 93.126 573.772 90.6649C587.195 88.1168 600.692 91.3401 614.174 93.5555C615.183 93.7213 616.28 93.9408 617.55 94.2674C633.042 98.2515 652.271 110.209 664.525 119.877C681.895 133.582 696.376 146.335 711.735 162.332C726.163 177.359 737.08 198.563 749.976 215.145C770.64 241.715 790.919 268.287 815.363 291.86C833.836 309.675 858.626 315.451 884.054 317.583C913.517 320.054 942.869 319.632 972.456 319.632C987.957 319.632 1003.46 319.632 1018.96 319.632C1029.19 319.632 1040.4 321.285 1050 317.583" stroke="white" stroke-width="9" stroke-linecap="round"/>
<path d="M43 -91C75.8366 -91 109.919 -83.8312 134.353 -60.2685C144.617 -50.3703 148.427 -38.6362 153.001 -25.8947C161.622 -1.8772 171.034 29.5382 188.409 49.3406C201.179 63.8951 216.658 81.8231 236.328 87.2428C248.291 90.5391 260.287 93.3891 272.798 93.3891C294.936 93.3891 317.116 97.3215 339.247 94.9826C375.028 91.2011 410.115 92.0825 445.471 85.6493C482.972 78.8258 521.675 68.272 556.18 52.2999C563.388 48.9633 577.807 45.126 590.772 42.6649C604.195 40.1168 617.692 43.3401 631.174 45.5555C632.183 45.7213 633.28 45.9408 634.55 46.2674C650.042 50.2515 669.271 62.2086 681.525 71.8771C698.895 85.5824 713.376 98.3348 728.735 114.332C743.163 129.359 754.08 150.563 766.976 167.145C787.64 193.715 807.919 220.287 832.363 243.86C850.836 261.675 875.626 267.451 901.054 269.583C930.517 272.054 959.869 271.632 989.456 271.632C1004.96 271.632 1020.46 271.632 1035.96 271.632C1046.19 271.632 1057.4 273.285 1067 269.583" stroke="white" stroke-width="9" stroke-linecap="round"/>
<path d="M64 -134C96.8366 -134 130.919 -126.831 155.353 -103.268C165.617 -93.3703 169.427 -81.6362 174.001 -68.8947C182.622 -44.8772 192.034 -13.4618 209.409 6.3406C222.179 20.8951 237.658 38.8231 257.328 44.2428C269.291 47.5391 281.287 50.3891 293.798 50.3891C315.936 50.3891 338.116 54.3215 360.247 51.9826C396.028 48.2011 431.115 49.0825 466.471 42.6493C503.972 35.8258 542.675 25.272 577.18 9.29993C584.388 5.96332 598.807 2.12604 611.772 -0.33509C625.195 -2.88318 638.692 0.34015 652.174 2.55546C653.183 2.72128 654.28 2.94078 655.55 3.26745C671.042 7.25149 690.271 19.2086 702.525 28.8771C719.895 42.5824 734.376 55.3348 749.735 71.3321C764.163 86.359 775.08 107.563 787.976 124.145C808.64 150.715 828.919 177.287 853.363 200.86C871.836 218.675 896.626 224.451 922.054 226.583C951.517 229.054 980.869 228.632 1010.46 228.632C1025.96 228.632 1041.46 228.632 1056.96 228.632C1067.19 228.632 1078.4 230.285 1088 226.583" stroke="white" stroke-width="9" stroke-linecap="round"/>
</svg>
