<svg viewBox="0 0 1920 560" fill="none" xmlns="http://www.w3.org/2000/svg">
<path d="M-91.6572 452.338C-91.6572 412.897 -70.8103 376.385 -55.929 340.799C-40.1555 303.08 -25.0164 266.403 -6.1144 229.773C10.8101 196.974 27.2514 164.987 49.847 135.778C67.0366 113.557 74.632 103.425 91 87.0572C118.632 59.4252 139.382 50.8569 167.02 35.1242C202 15.2126 222.132 11.565 255.5 8.55703C293.2 5.1582 325.406 5.1586 360.388 5.1586C395.97 5.1586 431.131 4.74552 466.548 8.74422C519.996 14.7786 570.829 34.3457 618.169 59.1991C691.433 97.6627 755.575 148.984 816.915 204.033C856.276 239.357 893.463 279.836 938.442 308.144C996.551 344.716 1066.02 377.526 1133.47 391.51C1174.92 400.101 1215.45 410.729 1257.56 415.969C1323.89 424.223 1390.04 426.982 1456.82 426.982C1477.06 426.982 1486.22 426.982 1518.5 426.982C1559 424.057 1574.85 412.842 1602.3 403.932C1656.49 386.336 1709.73 365.599 1763.39 346.433C1815.08 327.974 1865.28 303.697 1910.92 273.056C1924.67 263.82 1940.66 258.394 1954.71 249.493C1955.77 248.825 1962.93 244.883 1959.83 244.883" stroke="white" stroke-width="9" stroke-linecap="round"/>
<path d="M-92 486.248C-92 446.807 -71.1531 410.295 -56.2718 374.709C-40.4983 336.99 -25.3592 300.313 -6.45718 263.683C10.4674 230.884 26.9086 198.897 49.5042 169.688C66.6938 147.467 74.2892 137.335 90.6572 120.967C118.289 93.3354 139.039 84.7671 166.677 69.0343C201.657 49.1228 221.789 45.4751 255.157 42.4672C292.857 39.0684 325.063 39.0688 360.045 39.0688C395.628 39.0688 430.788 38.6557 466.205 42.6544C519.653 48.6888 570.486 68.2559 617.826 93.1093C691.09 131.573 755.232 182.894 816.572 237.943C855.933 273.267 893.121 313.746 938.099 342.054C996.209 378.626 1065.68 411.436 1133.13 425.42C1174.57 434.011 1215.11 444.639 1257.22 449.879C1323.55 458.133 1389.7 460.892 1456.48 460.892C1476.72 460.892 1485.88 460.892 1518.16 460.892C1558.66 457.967 1574.51 446.752 1601.95 437.842C1656.15 420.246 1709.39 399.509 1763.05 380.344C1814.74 361.884 1864.94 337.607 1910.57 306.966C1924.33 297.73 1940.32 292.304 1954.37 283.404C1955.42 282.735 1962.59 278.794 1959.49 278.794" stroke="white" stroke-width="9" stroke-linecap="round"/>
<path d="M-91.6572 521.248C-91.6572 481.807 -70.8103 445.295 -55.929 409.709C-40.1555 371.99 -25.0164 335.313 -6.1144 298.683C10.8101 265.884 27.2514 233.897 49.847 204.688C67.0366 182.467 74.632 172.335 91 155.967C118.632 128.335 139.382 119.767 167.02 104.034C202 84.1228 222.132 80.4751 255.5 77.4672C293.2 74.0684 325.406 74.0688 360.388 74.0688C395.97 74.0688 431.131 73.6557 466.548 77.6544C519.996 83.6888 570.829 103.256 618.169 128.109C691.433 166.573 755.575 217.894 816.915 272.943C856.276 308.267 893.463 348.746 938.442 377.054C996.551 413.626 1066.02 446.436 1133.47 460.42C1174.92 469.011 1215.45 479.639 1257.56 484.879C1323.89 493.133 1390.04 495.892 1456.82 495.892C1477.06 495.892 1486.22 495.892 1518.5 495.892C1559 492.967 1574.85 481.752 1602.3 472.842C1656.49 455.246 1709.73 434.509 1763.39 415.344C1815.08 396.884 1865.28 372.607 1910.92 341.966C1924.67 332.73 1940.66 327.304 1954.71 318.404C1955.77 317.735 1962.93 313.794 1959.83 313.794" stroke="white" stroke-width="9" stroke-linecap="round"/>
<path d="M-92 555.158C-92 515.717 -71.1531 479.205 -56.2718 443.619C-40.4983 405.9 -25.3592 369.224 -6.45718 332.593C10.4674 299.794 26.9086 267.807 49.5042 238.598C66.6938 216.378 74.2892 206.246 90.6572 189.878C118.289 162.246 139.039 153.677 166.677 137.945C201.657 118.033 221.789 114.385 255.157 111.377C292.857 107.979 325.063 107.979 360.045 107.979C395.628 107.979 430.788 107.566 466.205 111.565C519.653 117.599 570.486 137.166 617.826 162.019C691.09 200.483 755.232 251.804 816.572 306.853C855.933 342.177 893.121 382.656 938.099 410.964C996.209 447.537 1065.68 480.346 1133.13 494.33C1174.57 502.921 1215.11 513.549 1257.22 518.789C1323.55 527.043 1389.7 529.802 1456.48 529.802C1476.72 529.802 1485.88 529.802 1518.16 529.802C1558.66 526.877 1574.51 515.662 1601.95 506.752C1656.15 489.156 1709.39 468.419 1763.05 449.254C1814.74 430.794 1864.94 406.518 1910.57 375.876C1924.33 366.64 1940.32 361.214 1954.37 352.314C1955.42 351.645 1962.59 347.704 1959.49 347.704" stroke="white" stroke-width="9" stroke-linecap="round"/>
</svg>
