<svg viewBox="0 0 51 103" fill="none" xmlns="http://www.w3.org/2000/svg">
<path d="M25.5273 58.9661C39.635 58.9661 50.5557 44.0641 50.5557 25.8836C50.5557 11.3643 40.2119 0.226562 25.5273 0.226562C10.8543 0.226562 0.555664 11.3643 0.555664 25.8836C0.555664 44.0641 11.4313 58.9661 25.5273 58.9661ZM19.1799 53.6974L17.0994 61.5958C16.4697 64.0372 17.9699 66.4891 20.7875 66.4891H30.2808C33.0983 66.4891 34.6102 64.0372 33.9689 61.5958L31.8761 53.6974H19.1799ZM25.4587 102.355C27.407 102.355 29.0121 100.738 29.0121 98.8017C29.0121 91.0963 35.9938 89.3686 35.9938 81.5236C35.9938 72.9162 29.0648 72.46 29.088 65.3497H21.9813C21.9697 76.4008 28.9524 76.7519 28.9524 81.5236C28.9524 86.3322 21.938 86.8944 21.938 98.8017C21.938 100.738 23.5097 102.355 25.4587 102.355Z" fill="white"/>
</svg>
