<svg viewBox="0 0 66 63" fill="none" xmlns="http://www.w3.org/2000/svg">
<path d="M40.7087 48.1501C48.658 44.8263 41.885 33.1056 36.039 27.2524C30.03 21.251 19.0096 14.1526 15.1432 22.6467L0.786327 54.5044C-1.57674 59.7891 2.81839 64.0142 7.93789 61.8711L40.7087 48.1501ZM6.60632 55.2501L17.0123 32.1441C18.4374 34.8053 20.567 37.6166 23.1427 40.2C25.6154 42.6731 28.3236 44.7435 30.9256 46.1691L7.28752 55.9693C6.7372 56.216 6.32213 55.8294 6.60632 55.2501ZM20.4482 24.5575C21.5211 23.4118 26.264 25.4826 32.0623 31.259C37.8897 37.0493 39.8577 41.822 38.7634 42.8733C37.6824 44.0267 32.9174 41.978 27.1411 36.1934C21.343 30.4036 19.3241 25.6309 20.4482 24.5575ZM23.8523 7.32005C25.8259 7.32005 27.3733 5.77277 27.3733 3.82076C27.3733 1.87618 25.8259 0.285863 23.8523 0.285863C21.8706 0.285863 20.3313 1.87618 20.3313 3.82076C20.3313 5.77277 21.8706 7.32005 23.8523 7.32005ZM28.3215 10.9061C28.0282 9.59246 27.1462 8.49919 25.7313 8.5078C24.2587 8.50869 22.8595 9.79015 23.1961 11.2718C24.2254 16.6977 24.2254 22.1042 23.1952 27.5223C22.8509 29.0252 24.2578 30.2768 25.7304 30.2777C27.0288 30.2786 28.0264 29.3091 28.3124 27.8867C29.3652 22.2094 29.3652 16.5569 28.3215 10.9061ZM38.9926 10.9054C41.9373 10.9054 44.3111 8.52401 44.3111 5.55835C44.3111 2.56283 41.9373 0.240234 38.9926 0.240234C36.0193 0.240234 33.6452 2.56283 33.6452 5.55835C33.6452 8.52401 36.0193 10.9054 38.9926 10.9054ZM34.5785 18.8191C36.2838 18.8191 37.6145 17.4453 37.6145 15.7615C37.6145 14.1369 36.2838 12.7333 34.5785 12.7333C32.9244 12.7333 31.5429 14.1152 31.5429 15.7615C31.5429 17.467 32.9244 18.8191 34.5785 18.8191ZM59.1017 7.60013C60.7336 7.60013 62.0861 6.2476 62.0861 4.56417C62.0861 2.91747 60.7336 1.53563 59.1017 1.53563C57.3964 1.53563 56.0443 2.91747 56.0443 4.56417C56.0443 6.2476 57.3964 7.60013 59.1017 7.60013ZM51.1936 8.12898L46.8756 12.4467C45.8636 13.4806 45.8851 15.1161 46.8756 16.1283C47.8657 17.1323 49.538 17.154 50.5496 16.15L54.8746 11.8249C55.8792 10.8127 55.8573 9.16285 54.8746 8.12898C53.8196 7.11714 52.1614 7.16054 51.1936 8.12898ZM41.895 17.6957L29.5128 30.0042C28.5088 31.0164 28.5305 32.6879 29.5345 33.6784C30.5251 34.6907 32.1821 34.7123 33.1945 33.6784L45.5471 21.3392C46.4567 20.4219 46.5428 18.7364 45.5471 17.7174C44.5058 16.6556 42.8343 16.7639 41.895 17.6957ZM61.6161 29.985C63.547 29.985 65.1299 28.4453 65.1299 26.4636C65.1299 24.519 63.5685 22.9287 61.6161 22.9287C59.6129 22.9287 58.0738 24.519 58.0738 26.4636C58.0738 28.4453 59.6344 29.985 61.6161 29.985ZM50.8386 30.9253C53.4167 30.9253 55.5145 28.9005 55.5145 26.3226C55.5145 23.7361 53.4383 21.6386 50.8386 21.6386C48.2529 21.6386 46.2279 23.7361 46.2279 26.3226C46.2279 28.9005 48.2529 30.9253 50.8386 30.9253ZM60.0937 42.3927C62.0457 42.3927 63.6071 40.8391 63.6071 38.8795C63.6071 36.9055 62.0457 35.3585 60.0937 35.3585C58.1417 35.3585 56.5729 36.9055 56.5729 38.8795C56.5729 40.8391 58.1417 42.3927 60.0937 42.3927ZM52.3179 34.8987C46.6674 33.869 40.9936 33.8473 35.3379 34.9001C33.9368 35.2154 32.9596 36.2054 32.9608 37.512C32.9697 38.9841 34.2131 40.3616 35.7022 40.0683C41.1416 39.0381 46.5265 39.0092 51.9529 40.0381C53.4049 40.3824 54.7374 39.0049 54.7381 37.5106C54.7389 36.088 53.6104 35.192 52.3179 34.8987Z" fill="white"/>
</svg>
