<svg width="1657" height="229" viewBox="0 0 1657 229" fill="none" xmlns="http://www.w3.org/2000/svg">
<path d="M-17 18.8482C69.5 -1.5002 168.747 2.54055 238.42 18.847C323.689 38.8037 396.122 76.3299 474.12 114.747C515.507 135.132 553.503 158.405 596.1 176.628C664.37 205.834 733.686 236.586 807.177 250.173C900.482 267.423 999.15 280.733 1093.58 264.59C1146.36 255.568 1199.76 230.894 1249.26 210.647C1343.15 172.234 1431.38 131.601 1536.63 140.99C1564.88 143.509 1597.7 155.902 1615.04 179.544C1628.84 198.368 1632.56 233.395 1651.97 247.581" stroke="white" stroke-width="9" stroke-linecap="round"/>
<path d="M-17 54.7877C69.5 34.4393 168.747 38.48 238.42 54.7864C323.689 74.7432 396.122 112.269 474.12 150.686C515.507 171.071 553.503 194.344 596.1 212.568C664.37 241.774 733.686 272.526 807.177 286.112C900.482 303.362 999.15 316.672 1093.58 300.53C1146.36 291.508 1199.76 266.833 1249.26 246.586C1343.15 208.174 1431.38 167.54 1536.63 176.929C1564.88 179.449 1597.7 191.841 1615.04 215.484C1628.84 234.308 1632.56 269.335 1651.97 283.521" stroke="white" stroke-width="9" stroke-linecap="round"/>
<path d="M-17 85.7877C69.5 65.4393 168.747 69.48 238.42 85.7864C323.689 105.743 396.122 143.269 474.12 181.686C515.507 202.071 553.503 225.344 596.1 243.568C664.37 272.774 733.686 303.526 807.177 317.112C900.482 334.362 999.15 347.672 1093.58 331.53C1146.36 322.508 1199.76 297.833 1249.26 277.586C1343.15 239.174 1431.38 198.54 1536.63 207.929C1564.88 210.449 1597.7 222.841 1615.04 246.484C1628.84 265.308 1632.56 300.335 1651.97 314.521" stroke="white" stroke-width="9" stroke-linecap="round"/>
<path d="M-17 119.788C69.5 99.4393 168.747 103.48 238.42 119.786C323.689 139.743 396.122 177.269 474.12 215.686C515.507 236.071 553.503 259.344 596.1 277.568C664.37 306.774 733.686 337.526 807.177 351.112C900.482 368.362 999.15 381.672 1093.58 365.53C1146.36 356.508 1199.76 331.833 1249.26 311.586C1343.15 273.174 1431.38 232.54 1536.63 241.929C1564.88 244.449 1597.7 256.841 1615.04 280.484C1628.84 299.308 1632.56 334.335 1651.97 348.521" stroke="white" stroke-width="9" stroke-linecap="round"/>
</svg>
