<svg width="712" height="421" viewBox="0 0 712 421" fill="none" xmlns="http://www.w3.org/2000/svg">
<path d="M-185 330.435C-169.987 330.435 -156.28 334.369 -141.758 337.854C-119.576 343.178 -96.9924 344.597 -74.2293 343.79C-41.1047 342.615 -9.68426 314.383 9.88534 289.48C40.0495 251.094 9.88534 289.48 65.2147 218.268C91.6859 184.198 84.306 189.217 120.656 132.782C138.487 105.099 140.973 98.9496 178.411 83.814C215.849 68.6785 234.323 68.6785 266.524 68.6785C301.354 68.6785 335.967 72.3084 370.779 71.2011C404.857 70.117 435.045 50.3118 463.779 33.8073C497.466 14.457 528.972 -6.50754 557.371 -33.1156C581.571 -55.7893 600.737 -82.033 620.901 -108.2C630.299 -120.395 639.79 -135.824 652 -145" stroke="white" stroke-width="9" stroke-linecap="round"/>
<path d="M-167 353.435C-151.969 353.435 -138.246 357.369 -123.706 360.854C-101.498 366.178 -78.8873 367.597 -56.097 366.79C-22.9328 365.615 8.52521 337.383 28.1182 312.48C58.3184 274.094 28.1182 312.48 83.5137 241.268C110.017 207.198 102.628 212.217 139.021 155.782C156.873 128.099 159.363 121.95 196.845 106.814C234.327 91.6785 252.824 91.6785 285.063 91.6785C319.935 91.6785 354.59 95.3084 389.443 94.2011C423.562 93.117 453.786 73.3118 482.554 56.8073C516.282 37.457 547.826 16.4925 576.258 -10.1156C600.486 -32.7893 619.676 -59.033 639.864 -85.1998C649.273 -97.3946 658.776 -112.824 671 -122" stroke="white" stroke-width="9" stroke-linecap="round"/>
<path d="M-149 373.435C-133.969 373.435 -120.246 377.369 -105.706 380.854C-83.4983 386.178 -60.8873 387.597 -38.097 386.79C-4.93277 385.615 26.5252 357.383 46.1182 332.48C76.3184 294.094 46.1182 332.48 101.514 261.268C128.017 227.198 120.628 232.217 157.021 175.782C174.873 148.099 177.363 141.95 214.845 126.814C252.327 111.678 270.824 111.678 303.063 111.678C337.935 111.678 372.59 115.308 407.443 114.201C441.562 113.117 471.786 93.3118 500.554 76.8073C534.282 57.457 565.826 36.4925 594.258 9.88443C618.486 -12.7893 637.676 -39.033 657.864 -65.1998C667.273 -77.3946 676.776 -92.8244 689 -102" stroke="white" stroke-width="9" stroke-linecap="round"/>
<path d="M-131 396.435C-115.969 396.435 -102.246 400.369 -87.7063 403.854C-65.4983 409.178 -42.8873 410.597 -20.097 409.79C13.0672 408.615 44.5252 380.383 64.1182 355.48C94.3184 317.094 64.1182 355.48 119.514 284.268C146.017 250.198 138.628 255.217 175.021 198.782C192.873 171.099 195.363 164.95 232.845 149.814C270.327 134.678 288.824 134.678 321.063 134.678C355.935 134.678 390.59 138.308 425.443 137.201C459.562 136.117 489.786 116.312 518.554 99.8073C552.282 80.457 583.826 59.4925 612.258 32.8844C636.486 10.2107 655.676 -16.033 675.864 -42.1998C685.273 -54.3946 694.776 -69.8244 707 -79" stroke="white" stroke-width="9" stroke-linecap="round"/>
</svg>
