<svg viewBox="0 0 153 158" fill="none" xmlns="http://www.w3.org/2000/svg">
<path d="M47.9709 29.5121C47.9107 42.6589 56.407 53.7473 68.2374 57.3826L68.0442 99.5626C67.9722 115.274 72.9886 127.399 76.3004 127.39C79.566 127.382 84.6542 115.276 84.7264 99.5185L84.9197 57.3385C96.8294 53.7196 105.46 42.5066 105.52 29.3598C105.594 13.2409 92.8955 0.155902 76.8831 0.198282C60.9027 0.240576 48.0447 13.3933 47.9709 29.5121ZM68.599 31.1671C63.3682 31.1809 58.781 26.5384 58.8056 21.1606C58.8304 15.7504 63.4598 11.195 68.6905 11.1811C74.117 11.1667 78.5091 15.6983 78.4843 21.1086C78.4597 26.4863 74.0254 31.1527 68.599 31.1671ZM76.0406 156.956C121.973 156.834 150.88 141.686 150.969 122.346C151.055 103.608 124.174 90.7347 96.8783 88.7219L96.8077 104.138C114.658 105.503 133.027 112.283 132.985 121.489C132.931 133.121 109.139 140.977 76.1134 141.064C43.0166 141.152 19.3734 133.469 19.4269 121.79C19.4691 112.584 37.901 105.706 55.757 104.246L55.8276 88.8305C28.5202 90.9879 1.52049 104.004 1.43465 122.742C1.34605 142.081 30.108 157.077 76.0406 156.956Z" fill="white"/>
</svg>
