<svg viewBox="0 0 154 143" fill="none" xmlns="http://www.w3.org/2000/svg">
<path d="M2.16881 128.595C2.19523 136.31 7.37003 140.354 13.8037 140.374C16.2498 140.381 18.6601 139.699 21.1833 138.292L46.5126 124.42L46.0876 0.280314C44.0692 0.833121 41.6648 1.86818 38.8708 3.46032L9.82276 20.0488C4.35715 23.1226 1.82269 27.5043 1.84438 33.8389L2.16881 128.595ZM57.7857 121.757L88.1115 138.928C90.65 140.357 92.5299 141.397 95.3351 141.957L94.9236 21.7722L65.6335 4.15419C62.3329 2.25467 59.6024 0.825608 57.3694 0.17024L57.7857 121.757ZM106.623 141.392C107.515 141.118 108.577 140.712 109.564 140.119L143.121 121.083C149.073 117.763 151.567 113.423 151.545 107.006L151.225 13.5689C151.197 5.42663 145.854 1.72678 138.54 1.70441C135.851 1.69618 132.751 2.53441 130.066 4.02288L106.198 17.4073L106.623 141.392Z" fill="white"/>
</svg>
