<svg viewBox="0 0 36 56" fill="none" xmlns="http://www.w3.org/2000/svg">
<path d="M35.3057 13.6093V3.9616C35.3057 1.79258 33.4739 0.28071 31.3541 0.746772L17.8021 3.7031C15.4903 4.19546 14.2442 5.53044 14.2442 7.56456L14.2466 36.0323C14.2896 36.7999 14.0101 37.159 13.4236 37.2873L9.15426 38.1746C3.32247 39.3732 0.305664 42.522 0.305664 47.264C0.305664 52.11 3.90969 55.4162 9.11178 55.4162C14.8963 55.4162 20.1004 50.9672 20.1004 43.9753L20.1004 20.0094C20.1004 19.2065 19.9022 19.3871 20.6853 19.201L32.9515 16.5102C34.3738 16.2156 35.3057 15.0643 35.3057 13.6093Z" fill="white"/>
</svg>
