<svg viewBox="0 0 125 144" fill="none" xmlns="http://www.w3.org/2000/svg">
<path d="M2.59439 84.6512C2.60413 87.3155 4.7787 89.5621 7.44539 89.5686L22.5714 89.605L22.7151 128.933C22.7462 137.454 27.9689 142.785 36.0517 142.805C44.1345 142.824 49.4175 137.518 49.3863 128.997L49.2427 89.6693L74.5159 89.7303C102.974 89.7989 122.034 71.2389 121.939 45.213C121.843 18.8567 103.465 0.243998 75.5519 0.176685L35.9391 0.0811575C27.348 0.0604399 22.2639 5.42908 22.2973 14.5493L22.5356 79.8018L7.40958 79.7653C4.74289 79.7589 2.58452 81.9488 2.59439 84.6512ZM49.1673 69.0523L48.9942 21.6507L67.7743 21.696C85.3907 21.7385 94.8966 30.7724 94.95 45.3782C95.0038 60.1056 85.5101 69.1399 67.8111 69.0972L49.1673 69.0523ZM2.70355 114.531C2.71275 117.049 4.79612 119.203 7.3266 119.21L83.4872 119.393C86.0177 119.399 88.0852 117.255 88.076 114.737C88.0666 112.165 85.9836 110.065 83.4531 110.058L7.2925 109.875C4.76202 109.869 2.69415 111.959 2.70355 114.531Z" fill="white"/>
</svg>
